# Blender v3.0.0 OBJ File: 'piou.blend'
# www.blender.org
mtllib piou.mtl
o Cube
v 0.613272 3.225469 -0.115931
v 0.613272 3.276762 -0.064638
v 0.613272 3.022944 -0.064638
v 0.613272 3.074238 -0.115931
v 0.613272 3.276762 0.086594
v 0.613272 3.225469 0.137887
v 0.613272 3.074238 0.137887
v 0.613272 3.022944 0.086594
v 1.877664 3.250670 -0.049091
v 1.877664 3.209923 -0.089838
v 1.877664 3.089784 -0.089838
v 1.877664 3.049037 -0.049091
v 1.877664 3.209923 0.111794
v 1.877664 3.250670 0.071047
v 1.877664 3.049037 0.071047
v 1.877664 3.089784 0.111794
v 0.595781 3.093758 -0.083169
v 0.595781 3.055707 -0.045117
v 0.595781 3.205949 0.105124
v 0.595781 3.244000 0.067073
v 0.595781 3.055707 0.067073
v 0.595781 3.093758 0.105124
v 0.595781 3.244000 -0.045117
v 0.595781 3.205949 -0.083169
v 1.711586 3.093758 -0.083168
v 1.711586 3.055707 -0.045117
v 1.711586 3.205949 0.105125
v 1.711586 3.244000 0.067074
v 1.711586 3.055707 0.067074
v 1.711586 3.093758 0.105125
v 1.711586 3.244000 -0.045117
v 1.711586 3.205949 -0.083168
v 1.840943 2.476555 0.124372
v 1.758661 2.476555 0.092007
v 1.799802 2.476555 0.120036
v 1.769684 2.476555 0.108189
v 1.446002 3.232835 0.111369
v 1.559263 3.234601 0.122719
v 1.460586 3.232835 0.132778
v 1.500429 3.232835 0.148450
v 1.758661 2.476555 -0.066547
v 1.840943 2.476555 -0.098913
v 1.769684 2.476555 -0.082730
v 1.799802 2.476555 -0.094577
v 1.552999 3.243560 -0.112347
v 1.446002 3.232835 -0.085910
v 1.500429 3.232835 -0.122990
v 1.460586 3.232835 -0.107318
v 1.981945 2.476555 0.092007
v 1.899591 2.476555 0.124372
v 1.970912 2.476555 0.108189
v 1.940768 2.476555 0.120036
v 1.624329 3.232522 0.123953
v 1.728915 3.232835 0.111369
v 1.674441 3.232835 0.148450
v 1.714319 3.232835 0.132778
v 1.899591 2.476555 -0.098913
v 1.981945 2.476555 -0.066547
v 1.940768 2.476555 -0.094577
v 1.970912 2.476555 -0.082730
v 1.728915 3.232835 -0.085910
v 1.618110 3.243560 -0.112347
v 1.714319 3.232835 -0.107318
v 1.674441 3.232835 -0.122990
v 1.650136 2.976380 0.153640
v 1.600072 2.976007 0.150310
v 1.560229 2.976007 0.134638
v 1.545645 2.976007 0.113230
v 1.652642 2.987364 -0.130451
v 1.600072 2.976007 -0.124851
v 1.560229 2.976007 -0.109179
v 1.545645 2.976007 -0.087771
v 1.832280 2.976007 -0.087771
v 1.817683 2.976007 -0.109179
v 1.777805 2.976007 -0.124851
v 1.721474 2.987364 -0.130451
v 1.718921 2.974181 0.154944
v 1.777805 2.976007 0.150310
v 1.817683 2.976007 0.134638
v 1.832280 2.976007 0.113230
v 1.782770 2.505207 0.153804
v 1.742919 2.505129 0.138050
v 1.728336 2.505129 0.116642
v 1.837188 2.505129 -0.133999
v 2.021793 2.505129 -0.091182
v 1.912844 2.505129 0.159458
v 1.837188 2.505129 0.159458
v 1.782762 2.505129 -0.128263
v 1.742919 2.505129 -0.112591
v 1.728336 2.505129 -0.091182
v 2.007197 2.505129 -0.112591
v 1.967319 2.505129 -0.128263
v 1.912844 2.505129 -0.133999
v 1.967325 2.505192 0.153788
v 2.007197 2.505129 0.138050
v 2.021793 2.505129 0.116642
v 1.837289 2.505970 0.144479
v 1.654499 2.975884 0.140054
v 1.967332 2.505131 0.137861
v 1.777806 2.975884 0.134318
v 1.723332 2.975884 0.140054
v 1.600073 2.975884 0.134318
v 1.782770 2.505073 0.137801
v 1.912947 2.505987 0.144497
v 1.826166 2.548258 0.144792
v 1.679039 2.930561 0.139831
v 1.931598 2.550006 0.138296
v 1.778609 2.930561 0.135199
v 1.734621 2.930561 0.139831
v 1.635090 2.930561 0.135199
v 1.782506 2.549733 0.138588
v 1.887292 2.548386 0.144656
v 1.826560 2.550498 0.164441
v 1.679038 2.930730 0.161687
v 1.931588 2.550264 0.160058
v 1.778608 2.930730 0.157054
v 1.734620 2.930730 0.161687
v 1.635089 2.930730 0.157054
v 1.782602 2.550445 0.159865
v 1.887636 2.550447 0.164496
v 1.782763 2.504922 -0.101499
v 1.600073 2.975801 -0.098087
v 1.967320 2.504922 -0.101499
v 1.777807 2.975801 -0.098087
v 1.912845 2.504922 -0.107235
v 1.723332 2.975801 -0.103823
v 1.654500 2.975801 -0.103823
v 1.837190 2.504922 -0.107235
v 1.782556 2.567239 -0.101806
v 1.648220 2.913484 -0.099298
v 1.918264 2.567239 -0.101806
v 1.778911 2.913484 -0.099298
v 1.878207 2.567239 -0.106024
v 1.738855 2.913484 -0.103516
v 1.688241 2.913484 -0.103516
v 1.822576 2.567239 -0.106024
v 1.782554 2.567501 -0.135699
v 1.648219 2.913746 -0.133190
v 1.918262 2.567501 -0.135699
v 1.778909 2.913746 -0.133190
v 1.878206 2.567501 -0.139917
v 1.738853 2.913746 -0.137408
v 1.688239 2.913746 -0.137408
v 1.822575 2.567501 -0.139917
v 1.817808 3.002159 -0.077023
v 1.817808 3.061853 -0.136717
v 1.817808 3.297548 0.098978
v 1.817808 3.237854 0.158672
v 1.817808 3.002159 0.098978
v 1.817808 3.061853 0.158672
v 1.817808 3.297548 -0.077023
v 1.817808 3.237854 -0.136717
v 2.001168 2.556376 0.094023
v 1.852905 2.924760 0.091354
v 1.852905 2.924760 -0.065895
v 2.001168 2.556376 -0.068564
v 1.976465 2.589301 0.077742
v 1.857897 2.883903 0.075607
v 1.857897 2.883903 -0.050148
v 1.976465 2.589301 -0.052282
v 0.621058 3.280446 0.028276
v 0.681739 3.327931 0.024410
v 0.621058 3.280446 -0.006320
v 0.681739 3.327931 -0.002455
v 0.731930 3.274042 0.028276
v 0.703892 3.330840 0.024410
v 0.731930 3.274042 -0.006320
v 0.703892 3.330840 -0.002455
v 1.615724 3.263152 0.068504
v 1.615724 3.307817 0.068504
v 1.615724 3.263152 -0.046548
v 1.615724 3.307817 -0.046548
v 1.714725 3.263152 0.068504
v 1.714725 3.307817 0.068504
v 1.714725 3.263152 -0.046548
v 1.714725 3.307817 -0.046548
v 1.615724 3.263152 -0.008198
v 1.615724 3.263152 0.030153
v 1.632821 3.310297 0.022156
v 1.632821 3.310297 -0.000200
v 1.714725 3.263152 0.030153
v 1.714725 3.263152 -0.008198
v 1.697628 3.310297 -0.000200
v 1.697628 3.310297 0.022156
v 1.615724 3.263152 0.049329
v 1.697801 3.362153 0.036216
v 1.632648 3.362153 0.036216
v 1.714725 3.263152 0.049329
v 1.632648 3.362153 -0.014261
v 1.714725 3.263152 -0.027373
v 1.615724 3.263152 -0.027373
v 1.697801 3.362153 -0.014261
v 1.632648 3.362153 -0.020570
v 1.714725 3.263152 -0.036961
v 1.615724 3.263152 -0.036961
v 1.697801 3.362153 -0.020570
v 1.615724 3.263152 0.058916
v 1.697801 3.362153 0.042526
v 1.632648 3.362153 0.042526
v 1.714725 3.263152 0.058916
vt 0.136674 0.550521
vt 0.136674 0.699479
vt 0.375000 0.699479
vt 0.375000 0.550521
vt 0.375000 0.050521
vt 0.375000 0.199479
vt 0.425521 0.250000
vt 0.574479 0.250000
vt 0.625000 0.199479
vt 0.625000 0.050521
vt 0.574479 0.000000
vt 0.425521 0.000000
vt 0.425521 0.988326
vt 0.425521 1.000000
vt 0.574479 1.000000
vt 0.574479 0.988326
vt 0.863326 0.550521
vt 0.863326 0.699479
vt 0.875000 0.699479
vt 0.875000 0.550521
vt 0.375000 0.550521
vt 0.375000 0.500000
vt 0.375000 0.500000
vt 0.136674 0.500000
vt 0.125000 0.500000
vt 0.125000 0.550521
vt 0.625000 0.988326
vt 0.625000 1.000000
vt 0.136674 0.750000
vt 0.375000 0.750000
vt 0.625000 0.261674
vt 0.574479 0.261674
vt 0.574479 0.500000
vt 0.625000 0.500000
vt 0.425521 0.261674
vt 0.425521 0.500000
vt 0.574479 0.750000
vt 0.574479 0.750000
vt 0.425521 0.750000
vt 0.425521 0.750000
vt 0.574479 0.750000
vt 0.425521 0.750000
vt 0.375000 0.699479
vt 0.574479 0.500000
vt 0.625000 0.500000
vt 0.375000 0.750000
vt 0.625000 0.550521
vt 0.625000 0.550521
vt 0.625000 0.699479
vt 0.625000 0.699479
vt 0.425521 0.500000
vt 0.625000 0.750000
vt 0.625000 0.750000
vt 0.375000 0.550521
vt 0.375000 0.699479
vt 0.625000 0.699479
vt 0.625000 0.550521
vt 0.574479 0.500000
vt 0.425521 0.500000
vt 0.625000 0.500000
vt 0.625000 0.750000
vt 0.375000 0.750000
vt 0.375000 0.500000
vt 0.550427 0.845062
vt 0.550427 0.905023
vt 0.625000 0.903811
vt 0.625000 0.846274
vt 0.550427 0.537359
vt 0.550427 0.712641
vt 0.625000 0.712164
vt 0.625000 0.537836
vt 0.637898 0.731082
vt 0.673137 0.744931
vt 0.721274 0.750000
vt 0.778811 0.750000
vt 0.826905 0.744931
vt 0.862113 0.731082
vt 0.875000 0.712164
vt 0.875000 0.537836
vt 0.862113 0.518918
vt 0.826905 0.505069
vt 0.778811 0.500000
vt 0.721274 0.500000
vt 0.673137 0.505069
vt 0.637898 0.518918
vt 0.550427 0.037359
vt 0.550427 0.212641
vt 0.625000 0.212164
vt 0.625000 0.037836
vt 0.550427 0.344977
vt 0.550427 0.404939
vt 0.625000 0.346189
vt 0.550439 0.952497
vt 0.625012 0.951891
vt 0.550280 1.000000
vt 0.624790 1.000000
vt 0.550173 0.018680
vt 0.624746 0.018919
vt 0.413702 0.342756
vt 0.413714 0.296392
vt 0.375012 0.296077
vt 0.375000 0.342127
vt 0.413448 0.231757
vt 0.374746 0.231881
vt 0.413702 0.213515
vt 0.375000 0.213762
vt 0.413702 0.536485
vt 0.413966 0.518242
vt 0.375263 0.518118
vt 0.375000 0.536238
vt 0.413714 0.453595
vt 0.375012 0.453910
vt 0.413702 0.407162
vt 0.375000 0.407792
vt 0.413702 0.842838
vt 0.413714 0.796405
vt 0.375012 0.796090
vt 0.375000 0.842208
vt 0.413966 0.731758
vt 0.375263 0.731882
vt 0.413702 0.713515
vt 0.375000 0.713762
vt 0.125000 0.536238
vt 0.125000 0.713762
vt 0.137343 0.731881
vt 0.171063 0.745145
vt 0.217127 0.750000
vt 0.282792 0.750000
vt 0.328896 0.745145
vt 0.362646 0.731881
vt 0.362646 0.518119
vt 0.328896 0.504855
vt 0.282792 0.500000
vt 0.217127 0.500000
vt 0.171063 0.504855
vt 0.137343 0.518119
vt 0.625263 0.731083
vt 0.550691 0.731321
vt 0.625012 0.798123
vt 0.550439 0.797516
vt 0.625012 0.451877
vt 0.625000 0.403726
vt 0.550439 0.452484
vt 0.625263 0.518917
vt 0.550691 0.518679
vt 0.624746 0.231081
vt 0.550173 0.231320
vt 0.625012 0.298109
vt 0.550439 0.297503
vt 0.413448 0.018243
vt 0.413702 0.036485
vt 0.413714 0.953608
vt 0.413670 1.000000
vt 0.413702 0.907244
vt 0.413702 0.907244
vt 0.413702 0.842838
vt 0.413714 0.296392
vt 0.550439 0.297503
vt 0.550427 0.537359
vt 0.550427 0.712641
vt 0.413714 0.953608
vt 0.375000 0.907873
vt 0.375000 0.036238
vt 0.375012 0.953923
vt 0.375000 1.000000
vt 0.374746 0.018119
vt 0.550439 0.952497
vt 0.413702 0.407162
vt 0.413702 0.342756
vt 0.550427 0.344977
vt 0.550427 0.845062
vt 0.550427 0.845062
vt 0.550427 0.905023
vt 0.550427 0.905023
vt 0.413714 0.953608
vt 0.413702 0.907244
vt 0.413714 0.796405
vt 0.413714 0.796405
vt 0.550439 0.797516
vt 0.550439 0.797516
vt 0.550427 0.905023
vt 0.550439 0.952497
vt 0.550439 0.952497
vt 0.413714 0.953608
vt 0.413702 0.907244
vt 0.413702 0.842838
vt 0.413702 0.842838
vt 0.550427 0.845062
vt 0.550439 0.797516
vt 0.413714 0.796405
vt 0.413702 0.407162
vt 0.413702 0.342756
vt 0.413714 0.296392
vt 0.550439 0.297503
vt 0.413714 0.453595
vt 0.550439 0.452484
vt 0.550427 0.404939
vt 0.413714 0.296392
vt 0.550439 0.297503
vt 0.550427 0.344977
vt 0.550427 0.344977
vt 0.413714 0.453595
vt 0.413714 0.453595
vt 0.413702 0.407162
vt 0.550427 0.404939
vt 0.550439 0.452484
vt 0.413702 0.342756
vt 0.550427 0.404939
vt 0.550439 0.452484
vt 0.125000 0.699479
vt 0.625000 0.250000
vt 0.125000 0.750000
vt 0.000000 0.000000
vt 0.000000 0.000000
vt 0.000000 0.000000
vt 0.000000 0.000000
vt 0.413702 0.536485
vt 0.413702 0.536485
vt 0.550427 0.537359
vt 0.413702 0.713515
vt 0.413702 0.713515
vt 0.550427 0.712641
vt 0.375000 0.000000
vt 0.375000 0.250000
vt 0.625000 0.250000
vt 0.625000 0.000000
vt 0.375000 0.500000
vt 0.625000 0.500000
vt 0.375000 0.750000
vt 0.625000 0.750000
vt 0.375000 1.000000
vt 0.625000 1.000000
vt 0.125000 0.500000
vt 0.125000 0.750000
vt 0.875000 0.750000
vt 0.875000 0.500000
vt 0.375000 0.229167
vt 0.375000 0.250000
vt 0.625000 0.250000
vt 0.625000 0.229167
vt 0.375000 0.500000
vt 0.625000 0.500000
vt 0.375000 0.729167
vt 0.375000 0.750000
vt 0.625000 0.750000
vt 0.625000 0.729167
vt 0.375000 1.000000
vt 0.625000 1.000000
vt 0.125000 0.729167
vt 0.125000 0.750000
vt 0.875000 0.750000
vt 0.875000 0.729167
vt 0.625000 0.541667
vt 0.625000 0.583333
vt 0.875000 0.583333
vt 0.875000 0.541667
vt 0.625000 0.666667
vt 0.875000 0.666667
vt 0.125000 0.541667
vt 0.125000 0.583333
vt 0.375000 0.583333
vt 0.375000 0.541667
vt 0.125000 0.666667
vt 0.375000 0.666667
vt 0.375000 0.041667
vt 0.375000 0.083333
vt 0.625000 0.083333
vt 0.625000 0.041667
vt 0.375000 0.166667
vt 0.625000 0.166667
vt 0.375000 0.020833
vt 0.625000 0.020833
vt 0.625000 0.708333
vt 0.875000 0.708333
vt 0.125000 0.708333
vt 0.375000 0.708333
vt 0.375000 0.520833
vt 0.625000 0.520833
vt 0.125000 0.520833
vt 0.875000 0.520833
vt 0.375000 0.208333
vt 0.625000 0.208333
vt 0.875000 0.500000
vt 0.125000 0.500000
vt 0.375000 0.000000
vt 0.625000 0.000000
vn -0.0173 -0.9999 0.0000
vn 1.0000 0.0000 0.0000
vn 0.6166 0.0000 0.7873
vn 0.6166 0.7873 0.0000
vn -0.9039 -0.3024 -0.3024
vn 0.6622 -0.5298 -0.5298
vn 0.6622 0.5298 0.5298
vn -0.0195 -0.7070 0.7070
vn -0.0195 0.7070 -0.7070
vn -0.0173 0.0000 -0.9999
vn 0.0000 0.0000 -1.0000
vn -0.8821 0.0000 0.4710
vn -0.8821 -0.4710 0.0000
vn -0.9039 0.3024 -0.3024
vn -0.9039 -0.3024 0.3024
vn -0.8821 0.4710 0.0000
vn -0.8821 0.0000 -0.4710
vn -0.9039 0.3024 0.3024
vn -1.0000 0.0000 0.0000
vn 0.0000 1.0000 0.0000
vn -0.0000 -0.7071 0.7071
vn 0.0000 -0.7071 -0.7071
vn 0.0000 -1.0000 0.0000
vn -0.0000 0.0000 1.0000
vn 0.0000 0.7071 -0.7071
vn -0.0000 0.7071 0.7071
vn 0.0152 -0.1136 -0.9934
vn -0.9277 -0.3734 0.0000
vn 0.0004 -0.9999 -0.0171
vn 0.9323 0.3617 0.0000
vn 0.0000 -0.0705 0.9975
vn -0.1971 -0.1347 -0.9711
vn 0.3627 0.1341 -0.9222
vn 0.7879 0.3018 -0.5367
vn 0.0660 0.7771 0.6258
vn 0.2215 0.7961 0.5632
vn 0.4890 0.8062 0.3331
vn -0.4305 0.8535 0.2935
vn -0.2089 0.8208 0.5316
vn -0.0648 0.7856 0.6153
vn -0.0649 0.7856 -0.6154
vn -0.2088 0.8207 -0.5318
vn -0.4305 0.8535 -0.2935
vn -0.7831 -0.3190 -0.5339
vn -0.3615 -0.1522 -0.9199
vn 0.1792 0.0061 -0.9838
vn 0.0403 -0.0226 0.9989
vn -0.3615 -0.1522 0.9199
vn -0.7831 -0.3190 0.5339
vn 0.7879 0.3018 0.5367
vn 0.3627 0.1341 0.9222
vn -0.0367 -0.0531 0.9979
vn 0.3634 0.1342 -0.9219
vn 0.0001 -0.9984 -0.0566
vn -0.9323 -0.3617 -0.0027
vn 0.0101 -0.9997 -0.0228
vn 0.0000 0.7754 -0.6315
vn -0.5827 0.8127 0.0000
vn 0.6858 0.7278 0.0000
vn 0.0000 0.7754 0.6315
vn 0.0661 0.7771 -0.6259
vn 0.2214 0.7959 -0.5635
vn 0.4890 0.8062 -0.3331
vn -0.3623 -0.1525 -0.9195
vn -0.9323 -0.3618 0.0029
vn 0.0000 -1.0000 -0.0077
vn -0.0802 0.9728 0.2172
vn 0.0000 0.0049 -1.0000
vn 0.1302 0.0296 -0.9910
vn -0.0373 -0.0228 -0.9990
vn -0.0102 -0.9996 -0.0258
vn 0.9277 0.3734 -0.0019
vn 0.0155 0.9988 0.0471
vn -0.0116 0.9987 0.0494
vn -0.0017 0.9998 -0.0212
vn -0.0008 -1.0000 0.0077
vn 0.9324 0.3612 -0.0094
vn -0.0007 0.9941 -0.1082
vn -0.1047 -0.0212 -0.9943
vn -0.1294 -0.0843 -0.9880
vn -0.0009 0.0052 -1.0000
vn 0.0481 0.0106 -0.9988
vn 0.1046 0.0615 -0.9926
vn 0.1041 0.0331 -0.9940
vn 0.0005 -0.0071 -1.0000
vn -0.1026 -0.0488 -0.9935
vn -0.9278 -0.3730 0.0034
vn 0.0251 0.9971 -0.0722
vn 0.0000 -1.0000 0.0077
vn 0.0008 -1.0000 0.0077
vn -0.0230 0.9982 -0.0554
vn 0.0000 -0.0194 0.9998
vn 0.1048 0.0053 0.9945
vn 0.0317 0.0050 0.9995
vn 0.0008 -1.0000 -0.0077
vn 0.9277 0.3733 0.0028
vn -0.0008 -1.0000 -0.0077
vn 0.0781 0.9741 0.2120
vn 0.0000 0.9172 0.3983
vn 0.9323 0.3617 0.0028
vn -0.0008 1.0000 0.0077
vn 0.0000 0.0049 1.0000
vn -0.1047 -0.0212 0.9943
vn -0.0316 -0.0200 0.9993
vn -0.1044 -0.0773 0.9915
vn 0.1046 0.0615 0.9926
vn 0.0000 -0.0072 1.0000
vn -0.1046 -0.0493 0.9933
vn 0.1048 0.0334 0.9939
vn 0.0008 1.0000 0.0077
vn 0.0000 1.0000 0.0077
vn -0.9277 -0.3733 -0.0028
vn 0.8493 -0.5278 0.0000
vn 0.6166 0.0000 -0.7873
vn 0.6622 0.5298 -0.5298
vn 0.6622 -0.5298 0.5298
vn -0.0195 0.7070 0.7070
vn -0.0195 -0.7070 -0.7070
vn -0.0173 0.9999 0.0000
vn -0.0173 0.0000 0.9999
vn 0.6166 -0.7873 0.0000
vn -0.7671 0.2988 -0.5677
vn -0.8940 -0.4339 0.1116
vn 0.7619 -0.3142 -0.5664
vn 0.8692 0.3473 0.3521
vn -0.7744 -0.3077 -0.5528
vn -0.7744 -0.3077 0.5528
vn -0.7999 -0.6002 0.0000
vn -0.9926 -0.1213 0.0000
vn 0.6163 -0.7875 0.0000
vn -0.0019 -0.0733 0.9973
vn -0.8967 -0.4426 0.0000
vn -0.0019 -0.0733 -0.9973
vn 0.0577 0.9983 0.0000
vn 0.1302 -0.9915 0.0000
vn 0.9389 -0.0722 -0.3365
vn -0.9389 -0.0722 0.3365
vn 0.0000 -0.4313 -0.9022
vn 0.0000 -0.2617 -0.9651
vn -0.9423 -0.1784 -0.2833
vn -0.9401 -0.3409 0.0000
vn 0.9423 -0.1784 0.2833
vn 0.9401 -0.3409 0.0000
vn 0.9857 -0.1685 0.0000
vn 0.0000 -0.2617 0.9651
vn -0.9423 -0.1784 0.2833
vn -0.9857 -0.1685 0.0000
vn 0.9423 -0.1784 -0.2833
vn 0.0000 -0.4313 0.9022
vn -0.9389 -0.0722 -0.3365
vn 0.9389 -0.0722 0.3365
usemtl Material
s off
f 145/1/1 149/2/1 8/3/1 3/4/1
f 15/5/2 12/6/2 11/7/2 10/8/2 9/9/2 14/10/2 13/11/2 16/12/2
f 150/13/3 16/14/3 13/15/3 148/16/3
f 151/17/4 147/18/4 14/19/4 9/20/4
f 3/4/5 18/21/5 17/22/5 4/23/5
f 145/1/6 146/24/6 11/25/6 12/26/6
f 147/27/7 148/16/7 13/15/7 14/28/7
f 149/2/8 150/29/8 7/30/8 8/3/8
f 151/31/9 152/32/9 1/33/9 2/34/9
f 146/35/10 4/36/10 1/33/10 152/32/10
f 19/37/11 27/38/11 30/39/11 22/40/11
f 6/41/12 19/37/12 22/40/12 7/42/12
f 8/3/13 21/43/13 18/21/13 3/4/13
f 1/33/14 24/44/14 23/45/14 2/34/14
f 7/30/15 22/46/15 21/43/15 8/3/15
f 2/47/16 23/48/16 20/49/16 5/50/16
f 4/36/17 17/51/17 24/44/17 1/33/17
f 5/52/18 20/53/18 19/37/18 6/41/18
f 26/54/19 29/55/19 30/39/19 27/38/19 28/56/19 31/57/19 32/58/19 25/59/19
f 21/43/20 29/55/20 26/54/20 18/21/20
f 24/44/21 32/58/21 31/60/21 23/45/21
f 20/53/22 28/61/22 27/38/22 19/37/22
f 23/48/23 31/57/23 28/56/23 20/49/23
f 17/51/24 25/59/24 32/58/24 24/44/24
f 22/46/25 30/62/25 29/55/25 21/43/25
f 18/21/26 26/54/26 25/63/26 17/22/26
f 77/64/27 65/65/27 38/66/27 53/67/27
f 73/68/28 80/69/28 54/70/28 61/71/28
f 61/71/29 54/70/29 56/72/29 55/73/29 53/74/29 38/75/29 40/76/29 39/77/29 37/78/29 46/79/29 48/80/29 47/81/29 45/82/29 62/83/29 64/84/29 63/85/29
f 68/86/30 72/87/30 46/88/30 37/89/30
f 69/90/31 76/91/31 62/83/31 45/92/31
f 65/65/32 66/93/32 40/94/32 38/66/32
f 66/93/33 67/95/33 39/96/33 40/94/33
f 67/97/34 68/86/34 37/89/34 39/98/34
f 84/99/35 88/100/35 44/101/35 42/102/35
f 88/100/36 89/103/36 43/104/36 44/101/36
f 89/103/37 90/105/37 41/106/37 43/104/37
f 85/107/38 91/108/38 60/109/38 58/110/38
f 91/108/39 92/111/39 59/112/39 60/109/39
f 92/111/40 93/113/40 57/114/40 59/112/40
f 86/115/41 94/116/41 52/117/41 50/118/41
f 94/116/42 95/119/42 51/120/42 52/117/42
f 95/119/43 96/121/43 49/122/43 51/120/43
f 41/123/20 34/124/20 36/125/20 35/126/20 33/127/20 50/128/20 52/129/20 51/130/20 49/122/20 58/110/20 60/131/20 59/132/20 57/133/20 42/134/20 44/135/20 43/136/20
f 56/137/44 54/70/44 80/69/44 79/138/44
f 55/139/45 56/137/45 79/138/45 78/140/45
f 53/67/46 55/139/46 78/140/46 77/64/46
f 64/141/47 62/142/47 76/91/47 75/143/47
f 63/144/48 64/141/48 75/143/48 74/145/48
f 61/71/49 63/144/49 74/145/49 73/68/49
f 48/146/50 46/88/50 72/87/50 71/147/50
f 47/148/51 48/146/51 71/147/51 70/149/51
f 45/92/52 47/148/52 70/149/52 69/90/52
f 82/150/34 83/151/34 68/86/34 67/97/34
f 81/152/53 82/153/53 67/95/53 66/93/53
f 87/154/54 97/155/54 104/156/54 86/115/54
f 88/100/55 121/157/55 122/158/55 70/149/55
f 83/151/30 90/105/30 72/87/30 68/86/30
f 73/68/28 155/159/28 154/160/28 80/69/28
f 81/152/56 103/161/56 97/155/56 87/154/56
f 50/118/57 33/162/57 87/154/57 86/115/57
f 58/110/58 49/122/58 96/121/58 85/107/58
f 34/163/59 41/106/59 90/105/59 83/151/59
f 42/102/60 57/114/60 93/113/60 84/99/60
f 33/162/61 35/164/61 81/152/61 87/154/61
f 35/164/62 36/165/62 82/153/62 81/152/62
f 36/166/63 34/163/63 83/151/63 82/150/63
f 79/138/44 80/69/44 96/121/44 95/119/44
f 78/140/64 79/138/64 95/119/64 94/116/64
f 66/93/65 102/167/65 103/161/65 81/152/65
f 93/113/66 125/168/66 128/169/66 84/99/66
f 74/145/48 75/143/48 92/111/48 91/108/48
f 73/68/49 74/145/49 91/108/49 85/107/49
f 71/147/50 72/87/50 90/105/50 89/103/50
f 70/149/51 71/147/51 89/103/51 88/100/51
f 70/149/67 122/158/67 127/170/67 69/90/67
f 101/171/68 109/172/68 106/173/68 98/174/68
f 103/161/69 111/175/69 105/176/69 97/155/69
f 99/177/70 107/178/70 108/179/70 100/180/70
f 86/115/71 104/156/71 99/177/71 94/116/71
f 94/116/72 99/177/72 100/180/72 78/140/72
f 77/64/73 101/171/73 98/174/73 65/65/73
f 78/140/74 100/180/74 101/171/74 77/64/74
f 65/65/75 98/174/75 102/167/75 66/93/75
f 106/173/76 114/181/76 118/182/76 110/183/76
f 110/183/77 118/182/77 119/184/77 111/175/77
f 105/176/78 113/185/78 120/186/78 112/187/78
f 100/180/79 108/179/79 109/172/79 101/171/79
f 104/156/80 112/187/80 107/178/80 99/177/80
f 97/155/81 105/176/81 112/187/81 104/156/81
f 102/167/82 110/183/82 111/175/82 103/161/82
f 98/174/83 106/173/83 110/183/83 102/167/83
f 113/185/84 119/184/84 118/182/84 114/181/84
f 120/186/85 113/185/85 114/181/85 117/188/85
f 117/188/86 116/189/86 115/190/86 120/186/86
f 107/178/87 115/190/87 116/189/87 108/179/87
f 111/175/88 119/184/88 113/185/88 105/176/88
f 109/172/89 117/188/89 114/181/89 106/173/89
f 108/179/90 116/189/90 117/188/90 109/172/90
f 112/187/91 120/186/91 115/190/91 107/178/91
f 125/168/92 133/191/92 136/192/92 128/169/92
f 128/169/93 136/192/93 129/193/93 121/157/93
f 121/157/94 129/193/94 130/194/94 122/158/94
f 92/111/95 123/195/95 125/168/95 93/113/95
f 75/143/96 124/196/96 123/195/96 92/111/96
f 84/99/97 128/169/97 121/157/97 88/100/97
f 76/91/98 126/197/98 124/196/98 75/143/98
f 69/90/99 127/170/99 126/197/99 76/91/99
f 129/193/100 137/198/100 138/199/100 130/194/100
f 130/194/97 138/199/97 143/200/97 135/201/97
f 131/202/101 139/203/101 141/204/101 133/191/101
f 127/170/102 135/201/102 134/205/102 126/197/102
f 126/197/103 134/205/103 132/206/103 124/196/103
f 124/196/104 132/206/104 131/202/104 123/195/104
f 123/195/105 131/202/105 133/191/105 125/168/105
f 122/158/106 130/194/106 135/201/106 127/170/106
f 144/207/107 141/204/107 142/208/107 143/200/107
f 140/209/108 142/208/108 141/204/108 139/203/108
f 143/200/109 138/199/109 137/198/109 144/207/109
f 136/192/110 144/207/110 137/198/110 129/193/110
f 133/191/111 141/204/111 144/207/111 136/192/111
f 135/201/66 143/200/66 142/208/66 134/205/66
f 134/205/95 142/208/95 140/209/95 132/206/95
f 132/206/112 140/209/112 139/203/112 131/202/112
f 73/68/113 12/26/113 15/210/113 80/69/113
f 11/7/114 146/35/114 152/32/114 10/8/114
f 9/211/115 10/8/115 152/32/115 151/31/115
f 15/210/116 16/212/116 150/29/116 149/2/116
f 5/52/117 6/41/117 148/16/117 147/27/117
f 3/4/118 4/23/118 146/24/118 145/1/118
f 2/47/119 5/50/119 147/18/119 151/17/119
f 7/42/120 150/13/120 148/16/120 6/41/120
f 12/26/121 15/210/121 149/2/121 145/1/121
f 80/69/122 150/13/122 16/12/122 15/210/122
f 80/213/123 54/214/123 149/215/123 150/216/123
f 73/68/124 146/24/124 11/7/124 12/26/124
f 73/68/125 146/24/125 61/71/125
f 156/217/126 160/218/126 159/219/126 155/159/126
f 80/69/28 154/160/28 153/220/28 96/121/28
f 96/121/28 153/220/28 156/217/28 85/107/28
f 85/107/28 156/217/28 155/159/28 73/68/28
f 160/218/28 157/221/28 158/222/28 159/219/28
f 154/160/127 158/222/127 157/221/127 153/220/127
f 153/220/128 157/221/128 160/218/128 156/217/128
f 155/159/129 159/219/129 158/222/129 154/160/129
f 161/223/130 163/224/130 164/225/130 162/226/130
f 163/224/131 167/227/131 168/228/131 164/225/131
f 167/227/132 165/229/132 166/230/132 168/228/132
f 165/229/133 161/231/133 162/232/133 166/230/133
f 163/233/134 161/234/134 165/229/134 167/227/134
f 168/228/135 166/230/135 162/235/135 164/236/135
f 195/237/136 171/238/136 172/239/136 193/240/136
f 171/238/24 175/241/24 176/242/24 172/239/24
f 200/243/137 173/244/137 174/245/137 198/246/137
f 173/244/11 169/247/11 170/248/11 174/245/11
f 197/249/20 169/250/20 173/244/20 200/243/20
f 198/246/138 174/245/138 170/251/138 199/252/138
f 192/253/139 183/254/139 180/255/139 189/256/139
f 183/254/23 184/257/23 179/258/23 180/255/23
f 191/259/20 177/260/20 182/261/20 190/262/20
f 177/260/20 178/263/20 181/264/20 182/261/20
f 190/262/140 182/261/140 183/254/140 192/253/140
f 182/261/141 181/264/141 184/257/141 183/254/141
f 185/265/142 178/266/142 179/267/142 187/268/142
f 178/266/143 177/269/143 180/270/143 179/267/143
f 197/271/144 185/265/144 187/268/144 199/272/144
f 184/257/145 186/273/145 187/274/145 179/258/145
f 178/263/20 185/275/20 188/276/20 181/264/20
f 181/264/146 188/276/146 186/273/146 184/257/146
f 194/277/147 190/262/147 192/253/147 196/278/147
f 195/279/20 191/259/20 190/262/20 194/277/20
f 196/278/23 192/253/23 189/256/23 193/280/23
f 177/269/148 191/281/148 189/282/148 180/270/148
f 176/242/149 196/278/149 193/280/149 172/283/149
f 171/284/20 195/279/20 194/277/20 175/241/20
f 175/241/150 194/277/150 196/278/150 176/242/150
f 191/281/144 195/237/144 193/240/144 189/282/144
f 169/285/151 197/271/151 199/272/151 170/286/151
f 186/273/23 198/246/23 199/252/23 187/274/23
f 185/275/20 197/249/20 200/243/20 188/276/20
f 188/276/147 200/243/147 198/246/147 186/273/147
